HIERARCHY
ROOT Hips
{
    OFFSET 0.000000 0.000000 0.000000
    CHANNELS 6 Xposition Yposition Zposition Zrotation Xrotation Yrotation
    JOINT Spine
    {
        OFFSET -0.000000 6.993131 0.000000
        CHANNELS 3 Zrotation Xrotation Yrotation
        JOINT Spine1
        {
            OFFSET -0.000000 20.649729 0.000000
            CHANNELS 3 Zrotation Xrotation Yrotation
            JOINT Neck
            {
                OFFSET -0.000000 20.564924 1.869539
                CHANNELS 3 Zrotation Xrotation Yrotation
                JOINT Head
                {
                    OFFSET -0.000000 11.939490 -1.705642
                    CHANNELS 3 Zrotation Xrotation Yrotation
                    End Site
                    {
                        OFFSET -0.000000 21.320518 0.000000
                    }
                }
            }
            JOINT LeftShoulder
            {
                OFFSET 3.446977 19.850397 -0.038759
                CHANNELS 3 Zrotation Xrotation Yrotation
                JOINT LeftArm
                {
                    OFFSET 7.083611 0.000000 0.000000
                    CHANNELS 3 Zrotation Xrotation Yrotation
                    JOINT LeftForeArm
                    {
                        OFFSET 32.044487 0.000000 0.000000
                        CHANNELS 3 Zrotation Xrotation Yrotation
                        JOINT LeftHand
                        {
                            OFFSET 22.068741 0.000000 0.000000
                            CHANNELS 3 Zrotation Xrotation Yrotation
                            End Site
                            {
                                OFFSET 12.792312 0.000000 0.000000
                            }
                        }
                    }
                }
            }
            JOINT RightShoulder
            {
                OFFSET -3.365844 19.850397 -0.038759
                CHANNELS 3 Zrotation Xrotation Yrotation
                JOINT RightArm
                {
                    OFFSET -7.083611 0.000000 0.000000
                    CHANNELS 3 Zrotation Xrotation Yrotation
                    JOINT RightForeArm
                    {
                        OFFSET -32.044487 0.000000 0.000000
                        CHANNELS 3 Zrotation Xrotation Yrotation
                        JOINT RightHand
                        {
                            OFFSET -22.068741 0.000000 0.000000
                            CHANNELS 3 Zrotation Xrotation Yrotation
                            End Site
                            {
                                OFFSET -12.792312 0.000000 0.000000
                            }
                        }
                    }
                }
            }
        }
    }
    JOINT LeftUpLeg
    {
        OFFSET 8.528208 0.000000 0.000000
        CHANNELS 3 Zrotation Xrotation Yrotation
        JOINT LeftLeg
        {
            OFFSET -0.000000 -31.874865 0.000000
            CHANNELS 3 Zrotation Xrotation Yrotation
            JOINT LeftFoot
            {
                OFFSET -0.000000 -38.221939 0.000000
                CHANNELS 3 Zrotation Xrotation Yrotation
                JOINT LeftToeBase
                {
                    OFFSET -0.000000 -5.543335 12.792312
                    CHANNELS 3 Zrotation Xrotation Yrotation
                    End Site
                    {
                        OFFSET -0.000000 0.000000 3.411283
                    }
                }
            }
        }
    }
    JOINT RightUpLeg
    {
        OFFSET -8.528208 0.000000 0.000000
        CHANNELS 3 Zrotation Xrotation Yrotation
        JOINT RightLeg
        {
            OFFSET -0.000000 -31.874865 0.000000
            CHANNELS 3 Zrotation Xrotation Yrotation
            JOINT RightFoot
            {
                OFFSET -0.000000 -38.221939 0.000000
                CHANNELS 3 Zrotation Xrotation Yrotation
                JOINT RightToeBase
                {
                    OFFSET -0.000000 -5.543335 12.792312
                    CHANNELS 3 Zrotation Xrotation Yrotation
                    End Site
                    {
                        OFFSET -0.000000 0.000000 3.411283
                    }
                }
            }
        }
    }
}
MOTION
Frames:    5
Frame Time:    0.008333
39.518677    76.023010    25.956913    1.482363    2.451675    88.379189    -8.015198    -10.455630    -0.647241    20.866207    9.554823    -1.676211    -8.308702    0.477425    8.019165    -5.012156    6.230413    9.112468    24.905308    -7.580322    1.917332    0.258738    -14.531205    -5.453571    22.048689    -37.566860    -26.311577    26.344515    -30.729761    12.972457    2.163627    8.917105    -3.620275    50.522175    47.385063    0.944951    0.811327    -14.515808    35.936207    -13.828343    -15.466935    5.951579    -7.237267    -0.474046    0.033706    3.795918    17.305977    3.605855    -5.939213    -8.909247    -3.517660    0.000000    0.000000    0.000000    -16.215193    5.680901    0.865907    10.485498    2.866169    0.640861    1.044778    -4.402195    -3.727320    0.000000    0.000000    0.000000    
39.503002    76.035583    25.930489    1.420024    2.441742    88.384605    -7.978320    -10.476731    -0.468390    20.686411    9.719232    -1.513411    -8.121618    0.533722    7.858080    -4.979179    6.088544    8.909871    25.015038    -7.445776    1.966680    -0.293834    -14.453608    -4.914857    20.936890    -37.585045    -24.577223    26.618374    -31.267792    12.845171    2.240537    8.806319    -3.896416    50.632061    47.464176    0.953155    0.901889    -14.663099    35.821388    -14.076209    -15.633109    5.780486    -7.225796    -0.470189    -0.208939    3.686642    17.167732    3.914992    -5.908878    -8.841541    -3.552499    0.000000    0.000000    0.000000    -16.197067    5.548912    0.828608    10.444600    2.961655    0.565135    1.129269    -4.351260    -3.654079    0.000000    0.000000    0.000000    
39.483013    76.046371    25.908094    1.351360    2.424952    88.406395    -7.911764    -10.493986    -0.301402    20.452831    9.874646    -1.359379    -7.895367    0.339370    7.774881    -4.868030    6.290867    8.822592    25.096569    -7.277665    2.068624    -0.803551    -14.328956    -4.474906    20.116024    -37.549259    -22.724684    26.353428    -31.729124    12.734210    2.493254    8.823107    -4.108979    50.531673    47.460167    1.024200    0.972351    -14.854761    35.769451    -14.140853    -15.841568    5.722353    -7.197880    -0.601377    0.312349    3.812249    17.224806    3.268248    -5.911303    -8.815519    -3.467390    0.000000    0.000000    0.000000    -16.160473    5.425238    0.787144    10.396794    3.036795    0.450125    1.201657    -4.308490    -3.560066    0.000000    0.000000    0.000000    
39.460194    76.054886    25.882700    1.269017    2.404971    88.422478    -7.853509    -10.541623    -0.116419    20.253782    10.044649    -1.189322    -7.823008    0.498860    7.550768    -4.634253    6.013969    8.576233    25.104137    -7.071277    2.121158    -1.368089    -14.184720    -4.058405    19.283316    -37.589039    -20.996481    26.899027    -32.069248    12.992693    2.535098    8.701533    -4.291767    50.937263    47.720413    0.783517    0.583656    -15.175542    35.573383    -13.707465    -16.042192    5.930199    -7.163775    -0.661936    0.361088    3.674050    17.097424    3.561950    -5.754256    -8.766180    -3.580479    0.000000    0.000000    0.000000    -16.131107    5.285692    0.755561    10.358117    3.094351    0.188313    1.271535    -4.244802    -3.303444    0.000000    0.000000    0.000000    
39.424221    76.060051    25.837481    1.152321    2.433231    88.373421    -7.819420    -10.590534    0.126962    20.033369    10.137134    -0.942159    -7.515621    0.308575    7.455826    -4.618063    6.371078    8.461390    25.169861    -6.904653    2.032545    -2.018360    -14.252822    -3.548310    18.191172    -37.642864    -19.616245    26.409346    -32.608311    12.677626    2.670829    8.502483    -4.531268    51.155170    47.829849    0.511166    0.776235    -15.366760    35.584930    -14.075583    -16.281767    5.687941    -7.216253    -0.755754    0.390842    3.662282    17.003550    3.617958    -5.713409    -8.705341    -3.611745    0.000000    0.000000    0.000000    -16.195553    5.091610    0.970637    10.376214    3.094422    -0.163791    1.340965    -4.203084    -3.159702    0.000000    0.000000    0.000000    
